<?xml version="1.0" encoding="UTF-8" standalone="no"?>
<!DOCTYPE svg PUBLIC "-//W3C//DTD SVG 1.1//EN"
 "http://www.w3.org/Graphics/SVG/1.1/DTD/svg11.dtd">
<!-- Generated by graphviz version 2.30.1 (20201013.1554)
 -->
<!-- Title: %3 Pages: 1 -->
<svg width="1212pt" height="281pt"
 viewBox="0.00 0.00 1212.00 281.00" xmlns="http://www.w3.org/2000/svg" xmlns:xlink="http://www.w3.org/1999/xlink">
<g id="graph0" class="graph" transform="scale(1 1) rotate(0) translate(4 277)">
<title>%3</title>
<polygon fill="white" stroke="white" points="-4,5 -4,-277 1209,-277 1209,5 -4,5"/>
<text text-anchor="middle" x="602" y="-257.8" font-family="Times,serif" font-size="14.00">ConsTree</text>
<text text-anchor="middle" x="602" y="-242.8" font-family="Times,serif" font-size="14.00">Tree Quality = 0.5</text>
<g id="clust1" class="cluster"><title>cluster</title>
<polygon fill="none" stroke="black" points="1004,-8 1004,-227 1196,-227 1196,-8 1004,-8"/>
<text text-anchor="middle" x="1100" y="-211.8" font-family="Times,serif" font-size="14.00">Legend</text>
</g>
<!-- 00 -->
<g id="node1" class="node"><title>00</title>
<ellipse fill="#b9d3ee" stroke="black" cx="324" cy="-178" rx="324" ry="18"/>
<text text-anchor="middle" x="324" y="-174.3" font-family="Times,serif" font-size="14.00">1851</text>
</g>
<!-- 10 -->
<g id="node3" class="node"><title>10</title>
<polygon fill="darkseagreen" stroke="black" points="179,-124 149,-124 149,-88 179,-88 179,-124"/>
<text text-anchor="middle" x="164" y="-102.3" font-family="Times,serif" font-size="14.00">61</text>
</g>
<!-- 00&#45;&gt;10 -->
<g id="edge1" class="edge"><title>00&#45;&gt;10</title>
<path fill="none" stroke="black" d="M272.302,-160.225C246.33,-150.964 214.774,-138.417 188,-124 187.907,-123.95 187.814,-123.9 187.722,-123.849"/>
<polygon fill="black" stroke="black" points="189.482,-120.823 179.134,-118.552 185.808,-126.781 189.482,-120.823"/>
</g>
<!-- 11 -->
<g id="node4" class="node"><title>11</title>
<polygon fill="darkseagreen" stroke="black" points="773,-124 197,-124 197,-88 773,-88 773,-124"/>
<text text-anchor="middle" x="485" y="-102.3" font-family="Times,serif" font-size="14.00">1790</text>
</g>
<!-- 00&#45;&gt;11 -->
<g id="edge2" class="edge"><title>00&#45;&gt;11</title>
<path fill="none" stroke="black" d="M362.974,-160.055C385.058,-150.453 412.884,-138.355 436.386,-128.137"/>
<polygon fill="black" stroke="black" points="438.052,-131.229 445.827,-124.032 435.261,-124.809 438.052,-131.229"/>
</g>
<!-- legend_0 -->
<g id="node2" class="node"><title>legend_0</title>
<polygon fill="#b9d3ee" stroke="black" points="1187.25,-196 1012.75,-196 1012.75,-160 1187.25,-160 1187.25,-196"/>
<text text-anchor="middle" x="1100" y="-174.3" font-family="Times,serif" font-size="14.00">DT=4 ST=4 Similarity=0.95</text>
</g>
<!-- legend_1 -->
<g id="node5" class="node"><title>legend_1</title>
<polygon fill="darkseagreen" stroke="black" points="1187.25,-124 1012.75,-124 1012.75,-88 1187.25,-88 1187.25,-124"/>
<text text-anchor="middle" x="1100" y="-102.3" font-family="Times,serif" font-size="14.00">DT=5 ST=1 Similarity=0.96</text>
</g>
<!-- legend_0&#45;&gt;legend_1 -->
<g id="edge3" class="edge"><title>legend_0&#45;&gt;legend_1</title>
<path fill="none" stroke="black" d="M1100,-159.697C1100,-151.983 1100,-142.712 1100,-134.112"/>
<polygon fill="black" stroke="black" points="1103.5,-134.104 1100,-124.104 1096.5,-134.104 1103.5,-134.104"/>
</g>
<!-- 20 -->
<g id="node6" class="node"><title>20</title>
<ellipse fill="#b9d3ee" stroke="black" cx="90" cy="-34" rx="14.4248" ry="18"/>
<text text-anchor="middle" x="90" y="-30.3" font-family="Times,serif" font-size="14.00">3</text>
</g>
<!-- 10&#45;&gt;20 -->
<g id="edge4" class="edge"><title>10&#45;&gt;20</title>
<path fill="none" stroke="black" d="M148.667,-90.496C137.138,-79.5897 121.274,-64.584 108.95,-52.9258"/>
<polygon fill="black" stroke="black" points="111.113,-50.1541 101.443,-45.8248 106.303,-55.2394 111.113,-50.1541"/>
</g>
<!-- 21 -->
<g id="node7" class="node"><title>21</title>
<ellipse fill="#b9d3ee" stroke="black" cx="138" cy="-34" rx="14.4248" ry="18"/>
<text text-anchor="middle" x="138" y="-30.3" font-family="Times,serif" font-size="14.00">9</text>
</g>
<!-- 10&#45;&gt;21 -->
<g id="edge5" class="edge"><title>10&#45;&gt;21</title>
<path fill="none" stroke="black" d="M157.573,-87.6966C154.481,-79.3716 150.715,-69.2339 147.316,-60.0823"/>
<polygon fill="black" stroke="black" points="150.584,-58.8268 143.821,-50.6712 144.022,-61.2642 150.584,-58.8268"/>
</g>
<!-- 22 -->
<g id="node8" class="node"><title>22</title>
<ellipse fill="#b9d3ee" stroke="black" cx="190" cy="-34" rx="19.2474" ry="18"/>
<text text-anchor="middle" x="190" y="-30.3" font-family="Times,serif" font-size="14.00">10</text>
</g>
<!-- 10&#45;&gt;22 -->
<g id="edge6" class="edge"><title>10&#45;&gt;22</title>
<path fill="none" stroke="black" d="M170.427,-87.6966C173.443,-79.5778 177.098,-69.7351 180.43,-60.7642"/>
<polygon fill="black" stroke="black" points="183.803,-61.7375 184.003,-51.1446 177.241,-59.3001 183.803,-61.7375"/>
</g>
<!-- 23 -->
<g id="node9" class="node"><title>23</title>
<ellipse fill="#b9d3ee" stroke="black" cx="247" cy="-34" rx="19.2474" ry="18"/>
<text text-anchor="middle" x="247" y="-30.3" font-family="Times,serif" font-size="14.00">39</text>
</g>
<!-- 10&#45;&gt;23 -->
<g id="edge7" class="edge"><title>10&#45;&gt;23</title>
<path fill="none" stroke="black" d="M179.223,-92.1609C192.055,-81.3389 210.581,-65.7149 225.022,-53.5356"/>
<polygon fill="black" stroke="black" points="227.591,-55.9476 232.979,-46.8251 223.078,-50.5966 227.591,-55.9476"/>
</g>
<!-- 24 -->
<g id="node10" class="node"><title>24</title>
<ellipse fill="#b9d3ee" stroke="black" cx="381" cy="-34" rx="19.2474" ry="18"/>
<text text-anchor="middle" x="381" y="-30.3" font-family="Times,serif" font-size="14.00">57</text>
</g>
<!-- 11&#45;&gt;24 -->
<g id="edge8" class="edge"><title>11&#45;&gt;24</title>
<path fill="none" stroke="black" d="M459.559,-87.8761C442.815,-76.6062 421.049,-61.9562 404.676,-50.9355"/>
<polygon fill="black" stroke="black" points="406.45,-47.9109 396.2,-45.2307 402.541,-53.7181 406.45,-47.9109"/>
</g>
<!-- 25 -->
<g id="node11" class="node"><title>25</title>
<ellipse fill="#b9d3ee" stroke="black" cx="706" cy="-34" rx="288" ry="18"/>
<text text-anchor="middle" x="706" y="-30.3" font-family="Times,serif" font-size="14.00">1733</text>
</g>
<!-- 11&#45;&gt;25 -->
<g id="edge9" class="edge"><title>11&#45;&gt;25</title>
<path fill="none" stroke="black" d="M538.78,-87.9656C570.41,-77.9469 610.548,-65.2338 643.57,-54.7741"/>
<polygon fill="black" stroke="black" points="644.65,-58.1035 653.126,-51.7473 642.536,-51.4303 644.65,-58.1035"/>
</g>
<!-- legend_2 -->
<g id="node12" class="node"><title>legend_2</title>
<polygon fill="#b9d3ee" stroke="black" points="1187.25,-52 1012.75,-52 1012.75,-16 1187.25,-16 1187.25,-52"/>
<text text-anchor="middle" x="1100" y="-30.3" font-family="Times,serif" font-size="14.00">DT=6 ST=1 Similarity=0.92</text>
</g>
<!-- legend_1&#45;&gt;legend_2 -->
<g id="edge10" class="edge"><title>legend_1&#45;&gt;legend_2</title>
<path fill="none" stroke="black" d="M1100,-87.6966C1100,-79.9827 1100,-70.7125 1100,-62.1124"/>
<polygon fill="black" stroke="black" points="1103.5,-62.1043 1100,-52.1043 1096.5,-62.1044 1103.5,-62.1043"/>
</g>
</g>
</svg>