<?xml version="1.0" encoding="UTF-8" standalone="no"?>
<!DOCTYPE svg PUBLIC "-//W3C//DTD SVG 1.1//EN"
 "http://www.w3.org/Graphics/SVG/1.1/DTD/svg11.dtd">
<!-- Generated by graphviz version 2.43.0 (0)
 -->
<!-- Title: %3 Pages: 1 -->
<svg width="1267pt" height="281pt"
 viewBox="0.00 0.00 1267.00 281.00" xmlns="http://www.w3.org/2000/svg" xmlns:xlink="http://www.w3.org/1999/xlink">
<g id="graph0" class="graph" transform="scale(1 1) rotate(0) translate(4 277)">
<title>%3</title>
<polygon fill="white" stroke="transparent" points="-4,4 -4,-277 1263,-277 1263,4 -4,4"/>
<text text-anchor="middle" x="629.5" y="-257.8" font-family="Times,serif" font-size="14.00">ConsTree</text>
<text text-anchor="middle" x="629.5" y="-242.8" font-family="Times,serif" font-size="14.00">Tree Quality = 0.5</text>
<g id="clust1" class="cluster">
<title>cluster</title>
<polygon fill="none" stroke="black" points="1015,-8 1015,-227 1251,-227 1251,-8 1015,-8"/>
<text text-anchor="middle" x="1133" y="-211.8" font-family="Times,serif" font-size="14.00">Legend</text>
</g>
<!-- 00 -->
<g id="node1" class="node">
<title>00</title>
<ellipse fill="#b9d3ee" stroke="black" cx="324" cy="-178" rx="324" ry="18"/>
<text text-anchor="middle" x="324" y="-174.3" font-family="Times,serif" font-size="14.00">1851</text>
</g>
<!-- 10 -->
<g id="node3" class="node">
<title>10</title>
<polygon fill="darkseagreen" stroke="black" points="179.5,-124 144.5,-124 144.5,-88 179.5,-88 179.5,-124"/>
<text text-anchor="middle" x="162" y="-102.3" font-family="Times,serif" font-size="14.00">61</text>
</g>
<!-- 00&#45;&gt;10 -->
<g id="edge1" class="edge">
<title>00&#45;&gt;10</title>
<path fill="none" stroke="black" d="M274.61,-160.14C248.62,-150.65 216.53,-137.91 189,-124 188.9,-123.95 188.81,-123.9 188.71,-123.85"/>
<polygon fill="black" stroke="black" points="190.17,-120.66 179.74,-118.82 186.75,-126.77 190.17,-120.66"/>
</g>
<!-- 11 -->
<g id="node4" class="node">
<title>11</title>
<polygon fill="darkseagreen" stroke="black" points="774,-124 198,-124 198,-88 774,-88 774,-124"/>
<text text-anchor="middle" x="486" y="-102.3" font-family="Times,serif" font-size="14.00">1790</text>
</g>
<!-- 00&#45;&gt;11 -->
<g id="edge2" class="edge">
<title>00&#45;&gt;11</title>
<path fill="none" stroke="black" d="M363.22,-160.05C385.54,-150.41 413.69,-138.25 437.4,-128"/>
<polygon fill="black" stroke="black" points="438.79,-131.21 446.58,-124.03 436.02,-124.79 438.79,-131.21"/>
</g>
<!-- legend_0 -->
<g id="node2" class="node">
<title>legend_0</title>
<polygon fill="#b9d3ee" stroke="black" points="1243.5,-196 1022.5,-196 1022.5,-160 1243.5,-160 1243.5,-196"/>
<text text-anchor="middle" x="1133" y="-174.3" font-family="Times,serif" font-size="14.00">DT=4 ST=4 Similarity=0.95</text>
</g>
<!-- legend_1 -->
<g id="node5" class="node">
<title>legend_1</title>
<polygon fill="darkseagreen" stroke="black" points="1243.5,-124 1022.5,-124 1022.5,-88 1243.5,-88 1243.5,-124"/>
<text text-anchor="middle" x="1133" y="-102.3" font-family="Times,serif" font-size="14.00">DT=5 ST=1 Similarity=0.96</text>
</g>
<!-- legend_0&#45;&gt;legend_1 -->
<g id="edge3" class="edge">
<title>legend_0&#45;&gt;legend_1</title>
<path fill="none" stroke="black" d="M1133,-159.7C1133,-151.98 1133,-142.71 1133,-134.11"/>
<polygon fill="black" stroke="black" points="1136.5,-134.1 1133,-124.1 1129.5,-134.1 1136.5,-134.1"/>
</g>
<!-- 20 -->
<g id="node6" class="node">
<title>20</title>
<ellipse fill="#b9d3ee" stroke="black" cx="81" cy="-34" rx="16.8" ry="18"/>
<text text-anchor="middle" x="81" y="-30.3" font-family="Times,serif" font-size="14.00">9</text>
</g>
<!-- 10&#45;&gt;20 -->
<g id="edge4" class="edge">
<title>10&#45;&gt;20</title>
<path fill="none" stroke="black" d="M144.42,-89.81C131.79,-78.89 114.71,-64.13 101.46,-52.68"/>
<polygon fill="black" stroke="black" points="103.63,-49.93 93.77,-46.04 99.05,-55.23 103.63,-49.93"/>
</g>
<!-- 21 -->
<g id="node7" class="node">
<title>21</title>
<ellipse fill="#b9d3ee" stroke="black" cx="133" cy="-34" rx="16.8" ry="18"/>
<text text-anchor="middle" x="133" y="-30.3" font-family="Times,serif" font-size="14.00">9</text>
</g>
<!-- 10&#45;&gt;21 -->
<g id="edge5" class="edge">
<title>10&#45;&gt;21</title>
<path fill="none" stroke="black" d="M154.83,-87.7C151.38,-79.37 147.18,-69.23 143.39,-60.08"/>
<polygon fill="black" stroke="black" points="146.55,-58.57 139.49,-50.67 140.09,-61.25 146.55,-58.57"/>
</g>
<!-- 22 -->
<g id="node8" class="node">
<title>22</title>
<ellipse fill="#b9d3ee" stroke="black" cx="191" cy="-34" rx="23" ry="18"/>
<text text-anchor="middle" x="191" y="-30.3" font-family="Times,serif" font-size="14.00">10</text>
</g>
<!-- 10&#45;&gt;22 -->
<g id="edge6" class="edge">
<title>10&#45;&gt;22</title>
<path fill="none" stroke="black" d="M169.17,-87.7C172.52,-79.61 176.58,-69.81 180.28,-60.87"/>
<polygon fill="black" stroke="black" points="183.52,-62.2 184.11,-51.62 177.05,-59.52 183.52,-62.2"/>
</g>
<!-- 23 -->
<g id="node9" class="node">
<title>23</title>
<ellipse fill="#b9d3ee" stroke="black" cx="254" cy="-34" rx="23" ry="18"/>
<text text-anchor="middle" x="254" y="-30.3" font-family="Times,serif" font-size="14.00">33</text>
</g>
<!-- 10&#45;&gt;23 -->
<g id="edge7" class="edge">
<title>10&#45;&gt;23</title>
<path fill="none" stroke="black" d="M179.74,-91.5C194.01,-80.64 214.22,-65.27 229.95,-53.3"/>
<polygon fill="black" stroke="black" points="232.32,-55.89 238.16,-47.05 228.08,-50.32 232.32,-55.89"/>
</g>
<!-- 24 -->
<g id="node10" class="node">
<title>24</title>
<ellipse fill="#b9d3ee" stroke="black" cx="387" cy="-34" rx="23" ry="18"/>
<text text-anchor="middle" x="387" y="-30.3" font-family="Times,serif" font-size="14.00">64</text>
</g>
<!-- 11&#45;&gt;24 -->
<g id="edge8" class="edge">
<title>11&#45;&gt;24</title>
<path fill="none" stroke="black" d="M461.78,-87.88C446.66,-77.18 427.24,-63.45 411.97,-52.66"/>
<polygon fill="black" stroke="black" points="413.72,-49.61 403.53,-46.69 409.68,-55.32 413.72,-49.61"/>
</g>
<!-- 25 -->
<g id="node11" class="node">
<title>25</title>
<ellipse fill="#b9d3ee" stroke="black" cx="716" cy="-34" rx="288" ry="18"/>
<text text-anchor="middle" x="716" y="-30.3" font-family="Times,serif" font-size="14.00">1726</text>
</g>
<!-- 11&#45;&gt;25 -->
<g id="edge9" class="edge">
<title>11&#45;&gt;25</title>
<path fill="none" stroke="black" d="M541.97,-87.97C574.89,-77.95 616.66,-65.23 651.03,-54.77"/>
<polygon fill="black" stroke="black" points="652.43,-58.01 660.97,-51.75 650.39,-51.31 652.43,-58.01"/>
</g>
<!-- legend_2 -->
<g id="node12" class="node">
<title>legend_2</title>
<polygon fill="#b9d3ee" stroke="black" points="1243.5,-52 1022.5,-52 1022.5,-16 1243.5,-16 1243.5,-52"/>
<text text-anchor="middle" x="1133" y="-30.3" font-family="Times,serif" font-size="14.00">DT=6 ST=1 Similarity=0.92</text>
</g>
<!-- legend_1&#45;&gt;legend_2 -->
<g id="edge10" class="edge">
<title>legend_1&#45;&gt;legend_2</title>
<path fill="none" stroke="black" d="M1133,-87.7C1133,-79.98 1133,-70.71 1133,-62.11"/>
<polygon fill="black" stroke="black" points="1136.5,-62.1 1133,-52.1 1129.5,-62.1 1136.5,-62.1"/>
</g>
</g>
</svg>